# xmcd
#
# Track frame offsets:
#	150
#	18180
#	30253
#	46208
#	61105
#	75660
#	93695
#	106165
#	121533
#	139218
#	155850
#	168180
#	183985
#	196538
#	215600
#	230753
#
# Disc length: 3251 seconds
#
# Revision: 1
# Processed by: cddbd v1.5PL3 Copyright (c) Steve Scherf et al.
# Submitted via: CDex 1.50Beta5
#
DISCID=c40cb110
DTITLE=Various Artist - オールスター年代別流行歌〜昭和ひとけた〜東京行進曲
DYEAR=1900
DGENRE=Country
TTITLE0=大川栄策/君恋し
TTITLE1=初代 コロムビア・ローズ/東京行進曲
TTITLE2=田村英雄/侍ニッポン
TTITLE3=藤山一郎/酒は涙か溜息か
TTITLE4=藤山一郎/丘を越えて
TTITLE5=藤山一郎/影を慕いて
TTITLE6=美空ひばり/並木の雨
TTITLE7=都はるみ/涙の渡り鳥
TTITLE8=東海林太郎/赤城の子守唄
TTITLE9=大川栄策/サーカスの唄
TTITLE10=都はるみ/片瀬波
TTITLE11=美空ひばり/雨に咲く花
TTITLE12=大川栄策/無情の夢
TTITLE13=音丸/船頭可愛や
TTITLE14=北島三郎/旅笠道中
TTITLE15=都はるみ/緑の地平線
EXTD=
EXTT0=
EXTT1=
EXTT2=
EXTT3=
EXTT4=
EXTT5=
EXTT6=
EXTT7=
EXTT8=
EXTT9=
EXTT10=
EXTT11=
EXTT12=
EXTT13=
EXTT14=
EXTT15=
PLAYORDER=
